REM DIRINDEX 1\2\6,1\2\4\7,1\2\4\8,1\2\5\9,1\3\12,1\3\10\13,1\3\10\14,1\3\10\15,1\3\11\16,1\3\11\17
REM DIRNAME cjc048,folder01,folder02,folder03,folder04,folder05,folder06,folder07,folder08,folder09,folder10,folder11,folder12,folder13,folder14,folder15,folder16
TITLE ""
FILE "136.mp3" MP3
  TRACK 01 AUDIO
    TITLE "6:cjc048_03357"
    INDEX 01 00:00:00
  TRACK 02 AUDIO
    TITLE "9:cjc048_03358"
    INDEX 01 00:01:66
  TRACK 03 AUDIO
    TITLE "0:"
    INDEX 01 00:02:73
  TRACK 04 AUDIO
    TITLE "9:cjc048_03359"
    INDEX 01 00:03:39
  TRACK 05 AUDIO
    TITLE "0:"
    INDEX 01 00:04:40
  TRACK 06 AUDIO
    TITLE "9:cjc048_03360"
    INDEX 01 00:05:10
  TRACK 07 AUDIO
    TITLE "0:"
    INDEX 01 00:06:24
  TRACK 08 AUDIO
    TITLE "9:cjc048_03361"
    INDEX 01 00:06:67
  TRACK 09 AUDIO
    TITLE "0:"
    INDEX 01 00:08:03
  TRACK 10 AUDIO
    TITLE "9:cjc048_03362"
    INDEX 01 00:08:48
  TRACK 11 AUDIO
    TITLE "0:"
    INDEX 01 00:09:69
  TRACK 12 AUDIO
    TITLE "9:cjc048_03363"
    INDEX 01 00:10:39
  TRACK 13 AUDIO
    TITLE "0:"
    INDEX 01 00:11:48
  TRACK 14 AUDIO
    TITLE "9:cjc048_03364"
    INDEX 01 00:12:18
  TRACK 15 AUDIO
    TITLE "0:"
    INDEX 01 00:13:37
  TRACK 16 AUDIO
    TITLE "9:cjc048_03365"
    INDEX 01 00:14:06
  TRACK 17 AUDIO
    TITLE "0:"
    INDEX 01 00:15:15
  TRACK 18 AUDIO
    TITLE "9:cjc048_03366"
    INDEX 01 00:15:58
  TRACK 19 AUDIO
    TITLE "0:"
    INDEX 01 00:16:73
  TRACK 20 AUDIO
    TITLE "9:cjc048_03367"
    INDEX 01 00:17:41
  TRACK 21 AUDIO
    TITLE "0:"
    INDEX 01 00:18:66
  TRACK 22 AUDIO
    TITLE "9:cjc048_03368"
    INDEX 01 00:19:36
  TRACK 23 AUDIO
    TITLE "0:"
    INDEX 01 00:21:06
  TRACK 24 AUDIO
    TITLE "9:cjc048_03369"
    INDEX 01 00:21:49
  TRACK 25 AUDIO
    TITLE "0:"
    INDEX 01 00:23:03
  TRACK 26 AUDIO
    TITLE "9:cjc048_03370"
    INDEX 01 00:23:44
  TRACK 27 AUDIO
    TITLE "0:"
    INDEX 01 00:25:05
  TRACK 28 AUDIO
    TITLE "9:cjc048_03371"
    INDEX 01 00:25:48
  TRACK 29 AUDIO
    TITLE "0:"
    INDEX 01 00:27:00
  TRACK 30 AUDIO
    TITLE "9:cjc048_03372"
    INDEX 01 00:27:49
  TRACK 31 AUDIO
    TITLE "0:"
    INDEX 01 00:29:09
  TRACK 32 AUDIO
    TITLE "9:cjc048_03373"
    INDEX 01 00:29:50
  TRACK 33 AUDIO
    TITLE "0:"
    INDEX 01 00:31:12
  TRACK 34 AUDIO
    TITLE "9:cjc048_03374"
    INDEX 01 00:31:57
  TRACK 35 AUDIO
    TITLE "0:"
    INDEX 01 00:33:21
  TRACK 36 AUDIO
    TITLE "9:cjc048_03375"
    INDEX 01 00:33:69
  TRACK 37 AUDIO
    TITLE "0:"
    INDEX 01 00:35:45
  TRACK 38 AUDIO
    TITLE "9:cjc048_03376"
    INDEX 01 00:36:17
  TRACK 39 AUDIO
    TITLE "0:"
    INDEX 01 00:38:10
  TRACK 40 AUDIO
    TITLE "9:cjc048_03377"
    INDEX 01 00:38:53
  TRACK 41 AUDIO
    TITLE "0:"
    INDEX 01 00:40:01
  TRACK 42 AUDIO
    TITLE "9:cjc048_03378"
    INDEX 01 00:40:48
  TRACK 43 AUDIO
    TITLE "0:"
    INDEX 01 00:42:12
  TRACK 44 AUDIO
    TITLE "9:cjc048_03379"
    INDEX 01 00:42:57
  TRACK 45 AUDIO
    TITLE "0:"
    INDEX 01 00:44:12
  TRACK 46 AUDIO
    TITLE "9:cjc048_03380"
    INDEX 01 00:44:54
  TRACK 47 AUDIO
    TITLE "0:"
    INDEX 01 00:46:15
  TRACK 48 AUDIO
    TITLE "9:cjc048_03381"
    INDEX 01 00:46:64
  TRACK 49 AUDIO
    TITLE "0:"
    INDEX 01 00:48:18
  TRACK 50 AUDIO
    TITLE "9:cjc048_03382"
    INDEX 01 00:48:61
  TRACK 51 AUDIO
    TITLE "0:"
    INDEX 01 00:50:03
  TRACK 52 AUDIO
    TITLE "9:cjc048_03383"
    INDEX 01 00:50:46
  TRACK 53 AUDIO
    TITLE "0:"
    INDEX 01 00:52:18
  TRACK 54 AUDIO
    TITLE "9:cjc048_03384"
    INDEX 01 00:52:61
  TRACK 55 AUDIO
    TITLE "0:"
    INDEX 01 00:53:64
  TRACK 56 AUDIO
    TITLE "9:cjc048_03385"
    INDEX 01 00:54:34
  TRACK 57 AUDIO
    TITLE "0:"
    INDEX 01 00:55:40
  TRACK 58 AUDIO
    TITLE "9:cjc048_03386"
    INDEX 01 00:56:08
  TRACK 59 AUDIO
    TITLE "0:"
    INDEX 01 00:57:37
  TRACK 60 AUDIO
    TITLE "9:cjc048_03387"
    INDEX 01 00:58:01
  TRACK 61 AUDIO
    TITLE "0:"
    INDEX 01 00:59:39
  TRACK 62 AUDIO
    TITLE "9:cjc048_03388"
    INDEX 01 01:00:12
  TRACK 63 AUDIO
    TITLE "0:"
    INDEX 01 01:01:09
  TRACK 64 AUDIO
    TITLE "9:cjc048_03389"
    INDEX 01 01:01:66
  TRACK 65 AUDIO
    TITLE "0:"
    INDEX 01 01:03:24
  TRACK 66 AUDIO
    TITLE "9:cjc048_03390"
    INDEX 01 01:03:69
  TRACK 67 AUDIO
    TITLE "0:"
    INDEX 01 01:05:24
  TRACK 68 AUDIO
    TITLE "9:cjc048_03391"
    INDEX 01 01:05:73
  TRACK 69 AUDIO
    TITLE "0:"
    INDEX 01 01:07:12
  TRACK 70 AUDIO
    TITLE "9:cjc048_03392"
    INDEX 01 01:07:57
  TRACK 71 AUDIO
    TITLE "0:"
    INDEX 01 01:09:03
  TRACK 72 AUDIO
    TITLE "9:cjc048_03393"
    INDEX 01 01:09:52
  TRACK 73 AUDIO
    TITLE "0:"
    INDEX 01 01:10:63
  TRACK 74 AUDIO
    TITLE "9:cjc048_03394"
    INDEX 01 01:11:33
  TRACK 75 AUDIO
    TITLE "0:"
    INDEX 01 01:12:34
  TRACK 76 AUDIO
    TITLE "9:cjc048_03395"
    INDEX 01 01:13:00
  TRACK 77 AUDIO
    TITLE "0:"
    INDEX 01 01:14:06
  TRACK 78 AUDIO
    TITLE "9:cjc048_03396"
    INDEX 01 01:14:51
  TRACK 79 AUDIO
    TITLE "0:"
    INDEX 01 01:15:48
